HIERARCHY
ROOT reference
{
  OFFSET -65.3212 -1.93545 -120.338
  CHANNELS 6 Xposition Yposition Zposition Zrotation Xrotation Yrotation
  JOINT Hips
  {
    OFFSET 0 78.7191 0
    CHANNELS 6 Xposition Yposition Zposition Zrotation Xrotation Yrotation
    JOINT Chest
    {
      OFFSET 0 8.7983 -4.7612
      CHANNELS 6 Xposition Yposition Zposition Zrotation Xrotation Yrotation
      JOINT Chest2
      {
        OFFSET 0 8.0291 0.4195
        CHANNELS 6 Xposition Yposition Zposition Zrotation Xrotation Yrotation
        JOINT Chest3
        {
          OFFSET 0 9.9351 -2.2114
          CHANNELS 6 Xposition Yposition Zposition Zrotation Xrotation Yrotation
          JOINT Neck
          {
            OFFSET 0 22.3885 -0.4656
            CHANNELS 6 Xposition Yposition Zposition Zrotation Xrotation Yrotation
            JOINT Head
            {
              OFFSET -0.0001 12.643 3.4389
              CHANNELS 6 Xposition Yposition Zposition Zrotation Xrotation Yrotation
              End Site
              {
                OFFSET 0.0001 17.6655 0.5274
              }
            }
          }
          JOINT LeftCollar
          {
            OFFSET 2.2603 21.606 7.4023
            CHANNELS 6 Xposition Yposition Zposition Zrotation Xrotation Yrotation
            JOINT LeftShoulder
            {
              OFFSET 13.5163 -1.1332 -5.0146
              CHANNELS 6 Xposition Yposition Zposition Zrotation Xrotation Yrotation
              JOINT LeftElbow
              {
                OFFSET -0.0995 -28.05 -0.2431
                CHANNELS 6 Xposition Yposition Zposition Zrotation Xrotation Yrotation
                JOINT LeftWrist
                {
                  OFFSET 0.0679 -23.3996 -0.1402
                  CHANNELS 6 Xposition Yposition Zposition Zrotation Xrotation Yrotation
                  JOINT LeftFinger1
                  {
                    OFFSET 0.7932 -9.069 2.5189
                    CHANNELS 6 Xposition Yposition Zposition Zrotation Xrotation Yrotation
                    JOINT LeftFinger11
                    {
                      OFFSET -0.8272 -3.3923 0.5977
                      CHANNELS 6 Xposition Yposition Zposition Zrotation Xrotation Yrotation
                      JOINT LeftFinger12
                      {
                        OFFSET -0.5649 -2.3158 0.4082
                        CHANNELS 6 Xposition Yposition Zposition Zrotation Xrotation Yrotation
                        End Site
                        {
                          OFFSET -0.4919 -1.6479 0.2673
                        }
                      }
                    }
                  }
                  JOINT LeftFinger2
                  {
                    OFFSET 0.9159 -9.2044 0.2193
                    CHANNELS 6 Xposition Yposition Zposition Zrotation Xrotation Yrotation
                    JOINT LeftFinger21
                    {
                      OFFSET 0.0117 -4.1944 -0.0248
                      CHANNELS 6 Xposition Yposition Zposition Zrotation Xrotation Yrotation
                      JOINT LeftFinger22
                      {
                        OFFSET 0.0071 -2.3249 -0.0142
                        CHANNELS 6 Xposition Yposition Zposition Zrotation Xrotation Yrotation
                        End Site
                        {
                          OFFSET -0.1475 -2.0882 0.0028
                        }
                      }
                    }
                  }
                  JOINT LeftFinger3
                  {
                    OFFSET 0.6113 -8.7231 -2.0637
                    CHANNELS 6 Xposition Yposition Zposition Zrotation Xrotation Yrotation
                    JOINT LeftFinger31
                    {
                      OFFSET -0.1927 -3.8059 -0.2383
                      CHANNELS 6 Xposition Yposition Zposition Zrotation Xrotation Yrotation
                      JOINT LeftFinger32
                      {
                        OFFSET -0.1091 -2.1688 -0.1362
                        CHANNELS 6 Xposition Yposition Zposition Zrotation Xrotation Yrotation
                        End Site
                        {
                          OFFSET -0.2358 -1.9176 -0.0906
                        }
                      }
                    }
                  }
                  JOINT LeftFinger4
                  {
                    OFFSET -0.6151 -8.0947 -3.5641
                    CHANNELS 6 Xposition Yposition Zposition Zrotation Xrotation Yrotation
                    JOINT LeftFinger41
                    {
                      OFFSET -0.4882 -2.341 -0.6462
                      CHANNELS 6 Xposition Yposition Zposition Zrotation Xrotation Yrotation
                      JOINT LeftFinger42
                      {
                        OFFSET -0.3575 -1.7167 -0.4742
                        CHANNELS 6 Xposition Yposition Zposition Zrotation Xrotation Yrotation
                        End Site
                        {
                          OFFSET -0.4187 -1.5237 -0.3496
                        }
                      }
                    }
                  }
                  JOINT LeftFinger0
                  {
                    OFFSET -1.42 -1.8761 1.4223
                    CHANNELS 6 Xposition Yposition Zposition Zrotation Xrotation Yrotation
                    JOINT LeftFinger01
                    {
                      OFFSET -1.1471 -3.4929 2.6334
                      CHANNELS 6 Xposition Yposition Zposition Zrotation Xrotation Yrotation
                      JOINT LeftFinger02
                      {
                        OFFSET -0.823 -2.3 1.6571
                        CHANNELS 6 Xposition Yposition Zposition Zrotation Xrotation Yrotation
                        End Site
                        {
                          OFFSET -0.5822 -1.6914 1.1582
                        }
                      }
                    }
                  }
                }
              }
            }
          }
          JOINT RightCollar
          {
            OFFSET -2.2603 21.606 7.4023
            CHANNELS 6 Xposition Yposition Zposition Zrotation Xrotation Yrotation
            JOINT RightShoulder
            {
              OFFSET -13.5187 -1.1334 -5.0155
              CHANNELS 6 Xposition Yposition Zposition Zrotation Xrotation Yrotation
              JOINT RightElbow
              {
                OFFSET 0.0994 -28.0499 -0.2431
                CHANNELS 6 Xposition Yposition Zposition Zrotation Xrotation Yrotation
                JOINT RightWrist
                {
                  OFFSET -0.0679 -23.3996 -0.1402
                  CHANNELS 6 Xposition Yposition Zposition Zrotation Xrotation Yrotation
                  JOINT RightFinger1
                  {
                    OFFSET -0.7932 -9.0691 2.5189
                    CHANNELS 6 Xposition Yposition Zposition Zrotation Xrotation Yrotation
                    JOINT RightFinger11
                    {
                      OFFSET 0.8272 -3.3923 0.5977
                      CHANNELS 6 Xposition Yposition Zposition Zrotation Xrotation Yrotation
                      JOINT RightFinger12
                      {
                        OFFSET 0.565 -2.3158 0.4082
                        CHANNELS 6 Xposition Yposition Zposition Zrotation Xrotation Yrotation
                        End Site
                        {
                          OFFSET 0.4919 -1.6479 0.2673
                        }
                      }
                    }
                  }
                  JOINT RightFinger2
                  {
                    OFFSET -0.916 -9.2044 0.2193
                    CHANNELS 6 Xposition Yposition Zposition Zrotation Xrotation Yrotation
                    JOINT RightFinger21
                    {
                      OFFSET -0.0117 -4.1944 -0.0248
                      CHANNELS 6 Xposition Yposition Zposition Zrotation Xrotation Yrotation
                      JOINT RightFinger22
                      {
                        OFFSET -0.0071 -2.3249 -0.0142
                        CHANNELS 6 Xposition Yposition Zposition Zrotation Xrotation Yrotation
                        End Site
                        {
                          OFFSET 0.1475 -2.0882 0.0028
                        }
                      }
                    }
                  }
                  JOINT RightFinger3
                  {
                    OFFSET -0.6113 -8.7231 -2.0637
                    CHANNELS 6 Xposition Yposition Zposition Zrotation Xrotation Yrotation
                    JOINT RightFinger31
                    {
                      OFFSET 0.1927 -3.8059 -0.2383
                      CHANNELS 6 Xposition Yposition Zposition Zrotation Xrotation Yrotation
                      JOINT RightFinger32
                      {
                        OFFSET 0.1091 -2.1688 -0.1362
                        CHANNELS 6 Xposition Yposition Zposition Zrotation Xrotation Yrotation
                        End Site
                        {
                          OFFSET 0.2358 -1.9176 -0.0906
                        }
                      }
                    }
                  }
                  JOINT RightFinger4
                  {
                    OFFSET 0.6151 -8.0947 -3.564
                    CHANNELS 6 Xposition Yposition Zposition Zrotation Xrotation Yrotation
                    JOINT RightFinger41
                    {
                      OFFSET 0.4882 -2.341 -0.6462
                      CHANNELS 6 Xposition Yposition Zposition Zrotation Xrotation Yrotation
                      JOINT RightFinger42
                      {
                        OFFSET 0.3574 -1.7166 -0.4742
                        CHANNELS 6 Xposition Yposition Zposition Zrotation Xrotation Yrotation
                        End Site
                        {
                          OFFSET 0.4187 -1.5237 -0.3496
                        }
                      }
                    }
                  }
                  JOINT RightFinger0
                  {
                    OFFSET 1.4199 -1.8761 1.4221
                    CHANNELS 6 Xposition Yposition Zposition Zrotation Xrotation Yrotation
                    JOINT RightFinger01
                    {
                      OFFSET 1.1472 -3.4929 2.6336
                      CHANNELS 6 Xposition Yposition Zposition Zrotation Xrotation Yrotation
                      JOINT RightFinger02
                      {
                        OFFSET 0.8229 -2.3 1.6571
                        CHANNELS 6 Xposition Yposition Zposition Zrotation Xrotation Yrotation
                        End Site
                        {
                          OFFSET 0.5822 -1.6914 1.1582
                        }
                      }
                    }
                  }
                }
              }
            }
          }
        }
      }
    }
    JOINT RightHip
    {
      OFFSET -9.412 3.9771 -0.7758
      CHANNELS 6 Xposition Yposition Zposition Zrotation Xrotation Yrotation
      JOINT RightKnee
      {
        OFFSET -0.7531 -40.938 0
        CHANNELS 6 Xposition Yposition Zposition Zrotation Xrotation Yrotation
        JOINT RightAnkle
        {
          OFFSET 0 -40.1986 0
          CHANNELS 6 Xposition Yposition Zposition Zrotation Xrotation Yrotation
          JOINT RightToe
          {
            OFFSET 0 -4.4182 9.239
            CHANNELS 6 Xposition Yposition Zposition Zrotation Xrotation Yrotation
            End Site
            {
              OFFSET 0 0 6.1981
            }
          }
        }
      }
    }
    JOINT LeftHip
    {
      OFFSET 9.4119 3.9773 -0.7758
      CHANNELS 6 Xposition Yposition Zposition Zrotation Xrotation Yrotation
      JOINT LeftKnee
      {
        OFFSET 0.7532 -40.9383 0
        CHANNELS 6 Xposition Yposition Zposition Zrotation Xrotation Yrotation
        JOINT LeftAnkle
        {
          OFFSET 0 -40.1986 0
          CHANNELS 6 Xposition Yposition Zposition Zrotation Xrotation Yrotation
          JOINT LeftToe
          {
            OFFSET 0 -4.4182 9.239
            CHANNELS 6 Xposition Yposition Zposition Zrotation Xrotation Yrotation
            End Site
            {
              OFFSET 0 0 6.1981
            }
          }
        }
      }
    }
  }
}
MOTION
Frames:	4
Frame Time:	0.0333333
-31.8477 47.561 -7.39874 0 0 -0 3.55271e-015 78.7191 0 -5.70155 -28.0471 27.2718 -7.10543e-015 8.7983 -4.7612 -0.458781 4.91666 -4.44835 -7.10543e-015 8.0291 0.4195 -0.534763 9.85403 -8.90664 1.42109e-014 9.9351 -2.2114 -0.534765 9.85406 -8.90666 1.42109e-014 22.3885 -0.4656 0.419381 8.27917 11.2858 -0.0001 12.643 3.4389 12.1906 1.03823 16.5832 2.2603 21.606 7.4023 8.63759 -1.84052 -32.0382 13.5163 -1.1332 -5.0146 39.4019 -11.0045 20.8661 -0.0995 -28.05 -0.2431 -116.911 -42.8658 -69.8054 0.0679 -23.3996 -0.1402 -32.247 2.44528 39.0289 0.7932 -9.06901 2.5189 -3.03455 13.5333 -2.18212 -0.8272 -3.3923 0.5977 -35.3168 20.4567 4.66819 -0.5649 -2.3158 0.4082 -36.3891 20.9688 4.99587 0.9159 -9.20441 0.2193 -1.00369 1.774 1.17349 0.0117 -4.1944 -0.0248 -42.7842 24.7473 5.5453 0.0071 -2.3249 -0.0142 -8.91322 5.6287 -0.442371 0.6113 -8.7231 -2.0637 -6.58203 6.72803 5.0649 -0.1927 -3.8059 -0.2383 -13.883 9.68209 -0.672684 -0.1091 -2.1688 -0.1362 -15.2683 10.6413 -0.610356 -0.6151 -8.0947 -3.5641 13.8074 -0.976134 8.79333 -0.4882 -2.341 -0.6462 -17.7367 12.2751 -1.06119 -0.3575 -1.7167 -0.4742 -8.75059 6.03028 -1.00081 -1.42 -1.8761 1.4223 -11.5753 -16.7454 -49.4479 -1.1471 -3.4929 2.6334 -4.53232 0.274135 0.313053 -0.823 -2.3 1.6571 8.53295 10.6972 -3.07918 -2.2603 21.606 7.4023 -0.207003 0.361003 1.11563 -13.5187 -1.1334 -5.0155 -38.7555 -41.4825 -12.5694 0.0994 -28.0499 -0.2431 177.567 -62.5689 96.5171 -0.0679 -23.3996 -0.1402 -18.5644 -16.9901 8.88404 -0.7932 -9.0691 2.5189 -26.3198 9.86182 9.08117 0.8272 -3.3923 0.5977 39.4243 12.0335 -4.97761 0.565 -2.3158 0.4082 45.4054 13.4037 -6.38644 -0.916 -9.2044 0.2193 -2.23351 10.2521 5.0386 -0.0117 -4.1944 -0.0248 52.3752 15.6203 -6.40187 -0.0071 -2.3249 -0.0142 44.0892 13.7159 -4.48623 -0.6113 -8.7231 -2.0637 15.0072 7.58678 -5.70555 0.1927 -3.8059 -0.2383 37.2883 13.8495 -2.53175 0.1091 -2.1688 -0.1362 38.5715 14.2636 -2.77372 0.6151 -8.0947 -3.564 23.0538 4.37528 -8.90262 0.4882 -2.341 -0.6462 30.7535 11.5466 -0.51417 0.3574 -1.7166 -0.4742 30.6847 11.5225 -0.506212 1.4199 -1.8761 1.4221 7.91144 0.880162 52.6244 1.1472 -3.4929 2.6336 -0.671111 1.52912 0.48903 0.8229 -2.3 1.6571 -7.19731 14.537 5.60461 -9.412 3.9771 -0.7758 33.3306 -69.3075 -6.45842 -0.7531 -40.938 0 72.3729 74.7054 -68.4893 7.10543e-015 -40.1986 0 3.85932 -6.0719 -10.0531 -1.42109e-014 -4.4182 9.239 2.11711 13.7788 -1.05069 9.4119 3.9773 -0.7758 2.11251 -39.3413 10.8862 0.7532 -40.9383 0 179.957 67.9617 -178.083 0 -40.1986 1.42109e-014 1.39447 -11.1125 -9.7466 0 -4.4182 9.239 0.330857 -2.47249 0.00711767 
-31.8555 47.5582 -7.42085 0 0 -0 3.55271e-015 78.7191 0 -5.60346 -28.0415 27.5341 0 8.7983 -4.7612 -0.469664 4.91861 -4.47898 7.10543e-015 8.0291 0.4195 -0.553754 9.85885 -8.96732 0 9.9351 -2.2114 -0.553756 9.85889 -8.96736 0 22.3885 -0.4656 0.420723 8.45866 11.2641 -0.0001 12.643 3.4389 12.1991 1.04512 16.5232 2.2603 21.606 7.4023 8.61762 -1.83893 -32.02 13.5163 -1.1332 -5.0146 39.4286 -11.0189 20.9031 -0.0995 -28.05 -0.2431 -116.835 -42.9213 -69.7908 0.0679 -23.3996 -0.1402 -32.4268 2.42665 39.1203 0.7932 -9.06901 2.5189 -3.03456 13.5333 -2.18211 -0.8272 -3.3923 0.5977 -35.3168 20.4567 4.66822 -0.5649 -2.3158 0.4082 -36.3891 20.9688 4.99587 0.9159 -9.20441 0.2193 -1.00371 1.77402 1.17348 0.0117 -4.1944 -0.0248 -42.7842 24.7472 5.54532 0.0071 -2.3249 -0.0142 -8.91324 5.62872 -0.44239 0.6113 -8.72311 -2.0637 -6.58203 6.72805 5.0649 -0.1927 -3.8059 -0.2383 -13.883 9.6821 -0.672669 -0.1091 -2.1688 -0.1362 -15.2683 10.6413 -0.610349 -0.6151 -8.09471 -3.5641 13.8074 -0.976092 8.79334 -0.4882 -2.341 -0.6462 -17.7367 12.2751 -1.06118 -0.3575 -1.7167 -0.4742 -8.75059 6.03028 -1.00082 -1.42 -1.8761 1.4223 -11.5753 -16.7454 -49.4479 -1.1471 -3.4929 2.6334 -4.53233 0.274105 0.313038 -0.823 -2.3 1.6571 8.53294 10.6973 -3.07919 -2.2603 21.606 7.4023 -0.202698 0.360195 1.14097 -13.5187 -1.1334 -5.0155 -38.7249 -41.5049 -12.5627 0.0994 -28.0499 -0.2431 177.545 -62.6439 96.6157 -0.0679 -23.3996 -0.1402 -18.6018 -16.9921 8.83072 -0.7932 -9.0691 2.5189 -26.3198 9.86182 9.08117 0.8272 -3.3923 0.5977 39.4242 12.0335 -4.9776 0.565 -2.3158 0.4082 45.4054 13.4036 -6.38643 -0.916 -9.2044 0.2193 -2.23351 10.2521 5.03859 -0.0117 -4.1944 -0.0248 52.3752 15.6203 -6.40186 -0.0071 -2.3249 -0.0142 44.0892 13.716 -4.4862 -0.6113 -8.7231 -2.0637 15.0073 7.58678 -5.70555 0.1927 -3.8059 -0.2383 37.2883 13.8495 -2.53175 0.1091 -2.1688 -0.1362 38.5715 14.2636 -2.77371 0.6151 -8.0947 -3.564 23.0538 4.37528 -8.9026 0.4882 -2.341 -0.6462 30.7535 11.5466 -0.514178 0.3574 -1.7166 -0.4742 30.6847 11.5225 -0.506204 1.4199 -1.8761 1.4221 7.91143 0.880151 52.6244 1.1472 -3.4929 2.6336 -0.671089 1.52912 0.489034 0.8229 -2.3 1.6571 -7.19734 14.537 5.6046 -9.412 3.9771 -0.7758 33.2861 -69.2794 -6.49429 -0.7531 -40.938 0 72.0674 74.6899 -68.1836 -1.42109e-014 -40.1986 0 3.90697 -5.97624 -10.0521 1.42109e-014 -4.4182 9.239 2.12478 13.8246 -1.05515 9.4119 3.9773 -0.7758 2.07347 -39.4258 10.8249 0.7532 -40.9383 0 179.964 68.1336 -178.113 -7.10543e-015 -40.1986 -1.42109e-014 1.31596 -11.0613 -9.67732 0 -4.4182 9.239 0.336818 -2.51693 0.0073735 
-31.8638 47.5582 -7.44007 0 0 -0 3.55271e-015 78.7191 0 -5.4959 -28.0401 27.8248 -1.42109e-014 8.7983 -4.7612 -0.476976 4.92258 -4.51506 -7.10543e-015 8.0291 0.4195 -0.564986 9.86741 -9.03933 0 9.9351 -2.2114 -0.564988 9.86744 -9.03935 0 22.3885 -0.4656 0.412863 8.6035 11.2363 -0.0001 12.643 3.4389 12.2526 1.01991 16.497 2.2603 21.606 7.4023 8.59896 -1.83784 -32.0073 13.5163 -1.1332 -5.0146 39.4539 -11.0093 20.9226 -0.0995 -28.05 -0.2431 -116.793 -43.0095 -69.7863 0.0679 -23.3996 -0.1402 -32.6255 2.41597 39.1829 0.7932 -9.069 2.5189 -3.03456 13.5333 -2.18214 -0.8272 -3.3923 0.5977 -35.3168 20.4567 4.66821 -0.5649 -2.3158 0.4082 -36.3891 20.9688 4.99588 0.9159 -9.2044 0.2193 -1.00371 1.77402 1.17349 0.0117 -4.1944 -0.0248 -42.7842 24.7473 5.54532 0.0071 -2.3249 -0.0142 -8.91323 5.6287 -0.442375 0.6113 -8.7231 -2.0637 -6.58205 6.72803 5.06493 -0.1927 -3.8059 -0.2383 -13.883 9.68208 -0.672655 -0.1091 -2.1688 -0.1362 -15.2683 10.6413 -0.610355 -0.6151 -8.0947 -3.5641 13.8074 -0.976106 8.79332 -0.4882 -2.341 -0.6462 -17.7367 12.2751 -1.06116 -0.3575 -1.7167 -0.4742 -8.75058 6.03027 -1.0008 -1.42 -1.8761 1.4223 -11.5753 -16.7453 -49.4479 -1.1471 -3.4929 2.6334 -4.53233 0.274125 0.313028 -0.823 -2.3 1.6571 8.53294 10.6972 -3.07917 -2.2603 21.606 7.4023 -0.21164 0.359497 1.15884 -13.5187 -1.1334 -5.0155 -38.7405 -41.5499 -12.5892 0.0994 -28.0499 -0.2431 177.427 -62.7333 96.7282 -0.0679 -23.3996 -0.1402 -18.6933 -17.0008 8.63511 -0.7932 -9.0691 2.5189 -26.3198 9.8618 9.08117 0.8272 -3.3923 0.5977 39.4243 12.0335 -4.9776 0.565 -2.3158 0.4082 45.4054 13.4036 -6.38642 -0.916001 -9.2044 0.2193 -2.23351 10.2521 5.03859 -0.0117 -4.1944 -0.0248 52.3752 15.6203 -6.40186 -0.0071 -2.3249 -0.0142 44.0892 13.7159 -4.48621 -0.6113 -8.7231 -2.0637 15.0073 7.58676 -5.70554 0.1927 -3.8059 -0.2383 37.2883 13.8495 -2.53175 0.1091 -2.1688 -0.1362 38.5715 14.2636 -2.77371 0.6151 -8.0947 -3.564 23.0538 4.37526 -8.90259 0.4882 -2.341 -0.6462 30.7535 11.5466 -0.514182 0.3574 -1.7166 -0.4742 30.6847 11.5225 -0.506189 1.4199 -1.8761 1.4221 7.91146 0.880136 52.6244 1.1472 -3.4929 2.6336 -0.671108 1.52912 0.489032 0.8229 -2.3 1.6571 -7.19735 14.537 5.60461 -9.412 3.9771 -0.7758 33.0348 -69.262 -6.77228 -0.7531 -40.938 0 71.651 74.6558 -67.7363 0 -40.1986 0 3.847 -5.91585 -10.0398 7.10543e-015 -4.4182 9.239 2.13971 13.9139 -1.06384 9.4119 3.9773 -0.7758 2.01986 -39.4994 10.7466 0.7532 -40.9383 0 179.962 68.1907 -178.104 0 -40.1986 -1.42109e-014 1.20788 -10.9168 -9.67198 1.42109e-014 -4.4182 9.239 0.354433 -2.64841 0.00816692 
-31.8581 47.5492 -7.4537 0 0 -0 3.55271e-015 78.7191 0 -5.40419 -28.0486 28.0142 -1.42109e-014 8.7983 -4.7612 -0.480812 4.92643 -4.53516 0 8.0291 0.4195 -0.570615 9.87544 -9.07943 1.42109e-014 9.9351 -2.2114 -0.57061 9.87548 -9.07948 0 22.3885 -0.4656 0.419856 8.70345 11.1962 -0.0001 12.643 3.4389 12.2027 1.04415 16.4315 2.2603 21.606 7.4023 8.5831 -1.83759 -32.0046 13.5163 -1.1332 -5.0146 39.4586 -10.9955 20.9116 -0.0995 -28.05 -0.2431 -116.795 -43.1298 -69.7949 0.0679 -23.3996 -0.1402 -32.8023 2.43057 39.2154 0.7932 -9.069 2.5189 -3.03456 13.5333 -2.18214 -0.8272 -3.3923 0.5977 -35.3168 20.4567 4.6682 -0.5649 -2.3158 0.4082 -36.3891 20.9688 4.99587 0.9159 -9.2044 0.2193 -1.00371 1.77401 1.17352 0.0117 -4.1944 -0.0248 -42.7842 24.7473 5.54535 0.0071 -2.3249 -0.0142 -8.91324 5.6287 -0.442361 0.6113 -8.7231 -2.0637 -6.58205 6.72804 5.06492 -0.1927 -3.8059 -0.2383 -13.883 9.6821 -0.672651 -0.1091 -2.1688 -0.1362 -15.2683 10.6413 -0.610348 -0.6151 -8.0947 -3.5641 13.8074 -0.976121 8.79333 -0.4882 -2.341 -0.6462 -17.7367 12.2752 -1.06117 -0.3575 -1.7167 -0.4742 -8.75059 6.03026 -1.00081 -1.42 -1.8761 1.4223 -11.5753 -16.7454 -49.448 -1.1471 -3.4929 2.6334 -4.53232 0.274131 0.313036 -0.823 -2.3 1.6571 8.53293 10.6972 -3.07915 -2.2603 21.606 7.4023 -0.236358 0.359164 1.16957 -13.5187 -1.1334 -5.0155 -38.8329 -41.6164 -12.6733 0.0994 -28.0499 -0.2431 177.231 -62.8441 96.9054 -0.0679 -23.3996 -0.1402 -18.8463 -16.9848 8.23583 -0.7932 -9.0691 2.5189 -26.3198 9.86181 9.08119 0.8272 -3.3923 0.5977 39.4243 12.0335 -4.9776 0.565 -2.3158 0.4082 45.4054 13.4036 -6.38642 -0.916 -9.2044 0.2193 -2.2335 10.2521 5.0386 -0.0117 -4.1944 -0.0248 52.3752 15.6203 -6.40186 -0.0071 -2.3249 -0.0142 44.0892 13.7159 -4.48619 -0.6113 -8.7231 -2.0637 15.0073 7.58678 -5.70555 0.1927 -3.8059 -0.2383 37.2883 13.8495 -2.53174 0.1091 -2.1688 -0.1362 38.5716 14.2636 -2.77369 0.6151 -8.0947 -3.564 23.0538 4.3753 -8.90255 0.4882 -2.341 -0.6462 30.7535 11.5466 -0.514155 0.3574 -1.7166 -0.4742 30.6847 11.5225 -0.506188 1.4199 -1.8761 1.4221 7.91145 0.880148 52.6244 1.1472 -3.4929 2.6336 -0.671089 1.52912 0.489035 0.8229 -2.3 1.6571 -7.19736 14.537 5.60462 -9.412 3.9771 -0.7758 32.9962 -69.2575 -6.80344 -0.7531 -40.938 0 71.2353 74.6285 -67.3087 1.42109e-014 -40.1986 3.55271e-015 3.85037 -5.82586 -10.1223 1.42109e-014 -4.4182 9.239 2.10924 13.7315 -1.04608 9.4119 3.9773 -0.7758 2.02702 -39.5313 10.7716 0.7532 -40.9383 0 179.955 68.1682 -178.09 0 -40.1986 0 1.01937 -10.7738 -9.70292 0 -4.4182 9.239 0.356779 -2.66564 0.00827137 
